<?xml version="1.0" encoding="UTF-8"?>
<svg id="Capa_1" data-name="Capa 1" xmlns="http://www.w3.org/2000/svg" viewBox="0 0 579.63 464.43">
  <defs>
    <style>
      .cls-1, .cls-2, .cls-3, .cls-4, .cls-5, .cls-6 {
        stroke-width: 0px;
      }

      .cls-1, .cls-6 {
        fill: #000;
      }

      .cls-2 {
        fill: #2f2e41;
      }

      .cls-3 {
        fill: #bb8fc6;
      }

      .cls-4 {
        fill: #e6e6e6;
      }

      .cls-5 {
        fill: #ffb6b6;
      }

      .cls-6 {
        isolation: isolate;
        opacity: .17;
      }
    </style>
  </defs>
  <path class="cls-1" d="M579.63,320.69c0,.66-.53,1.19-1.18,1.19H141.15c-.66,0-1.19-.53-1.19-1.19s.53-1.19,1.19-1.19h437.29c.66,0,1.19.53,1.19,1.18h0Z"/>
  <path class="cls-5" d="M368.94,167.83c-6.22-1.49-12.47,2.35-13.96,8.57-.16.66-.26,1.34-.3,2.02l-25,8.7,1.58,16.48,35.13-12.78c6.43-.05,11.6-5.31,11.55-11.74-.04-5.38-3.77-10.03-9.01-11.25h0Z"/>
  <path class="cls-2" d="M328.2,215.74c-9.94,6.93-27.45,10.47-51.29,10.31-2.67,0-5.22-1.1-7.03-3.06-6.38-6.64-6.13-21.8-6.09-23.26l-6.99-26.34c-.15-.4-4.02-11.21-.08-18.76,1.69-3.19,4.7-5.48,8.23-6.27,14.78-3.92,28.68,35.65,30.44,40.88l20.74-3.53,14.33-.59,14.58-8.05,8.21,19.64-20.31,14.84c-1.4,1.59-2.99,3-4.74,4.2Z"/>
  <polygon class="cls-5" points="368.22 433.55 383.5 434.26 393.53 375.66 370.98 374.61 368.22 433.55"/>
  <path class="cls-2" d="M364.79,425.84l24.22-.31-.48,10.35,22.22,16.93c2.84,2.17,3.39,6.23,1.23,9.07-1.29,1.69-3.33,2.64-5.45,2.54l-28.76-1.34-4.48-10.47-2.41,10.15-10.84-.51,4.76-36.41Z"/>
  <polygon class="cls-5" points="527.77 307.73 533.33 293.48 481.02 265.22 454.6 281.83 527.77 307.73"/>
  <path class="cls-2" d="M519.36,308.51l7.46-23.05,9.65,3.77,23.16-15.64c2.96-2,6.98-1.22,8.99,1.74,1.19,1.76,1.44,4,.66,5.98l-10.48,26.82-11.35.89,8.84,5.53-3.95,10.11-32.97-16.16Z"/>
  <path class="cls-2" d="M227.25,265.32s6.35,40.52,36.35,43.52,57.65-10.52,57.65-10.52l84-25.87s89.35,25.39,104.35,29.39c0,0,10.35-23.48,10-25-3.19-13.96-7.35-4.52-7.35-4.52l-95-42s-15-4-41,7c-26,11-95.65,37.52-95.65,37.52l-53.35-9.52Z"/>
  <path class="cls-2" d="M227.6,262.84s-5,48.54,24.22,55.95c27.78,7.05,66.1-.18,66.1-.18l45.68-4.77s2,58.7,2,87.7c9.28,1.26,18.63,1.93,28,2,2,0,2.13-1.05,2.13-1.05l3.87-101.44c1.08-17.45-12.2-32.47-29.65-33.55-1.03-.06-2.07-.08-3.11-.04-2.16.08-4.42.23-6.79.46-28.1,2.69-62.99-3.03-62.99-3.03l-69.47-2.04Z"/>
  <path class="cls-2" d="M308.66,192.42s11.86,71.74,3.85,77.47-19.01,5.75-19.01,5.75l-2.56-39.61,17.72-43.61Z"/>
  <path class="cls-2" d="M288.87,104.31l15.86,15.07c15.15,14.4,18.91,37.1,9.2,55.6l-7.58,14.46-17.48-85.14Z"/>
  <path class="cls-3" d="M285.32,106.85l21.49,24.48c4.72,5.37,7.64,12.08,8.36,19.2h0c.33,3.23.2,6.49-.39,9.68l-8.1,44.03-6.09,63.59s-47,14.24-51.81-7.75,36.54-153.24,36.54-153.24Z"/>
  <path class="cls-2" d="M265.15,273.81c-30.9-5.15-38.47-6.17-38.94-6.35l-.47-.18,3.1-18.58,13.08-32.13c.85-10.51,6.36-24.75,3.21-36.19-9.16-33.26,5.72-80.25,12.53-83.85l18.87-12.37,6.62,6.07,11.48,16.08c9.45,42.09,15.98,81.32,15.66,83.72l-5.83,41.21-6.87,15.81c-20.85,10.06-6.83,31.05-32.43,26.78Z"/>
  <path class="cls-4" d="M321.09,243.58l48.51-12.98,4.27-1.01,3.05-.72,3.55-.84h.03c.52-.12,1.06-.03,1.51.24l18.01,21.6c.16.1.31.23.42.38.05.04.09.08.13.13.67.92.47,2.2-.44,2.87-.21.16-.46.27-.72.34l-72.37,16.66c-.77.17-1.56-.11-2.05-.72l-.73-.95-4.01-19.29-.28-2.5c-.18-.23-.31-.5-.38-.79-.24-1.08.42-2.15,1.5-2.41Z"/>
  <path class="cls-6" d="M324.25,268.57l.74.95c.49.61,1.28.89,2.04.72l72.38-16.66c1.1-.27,1.77-1.39,1.49-2.49-.06-.26-.18-.5-.34-.72-.04-.05-.08-.1-.13-.14l-76.19,18.32Z"/>
  <path class="cls-4" d="M380.11,227.88l-1.31-92.26c-.05-.56.11-1.11.47-1.54l9.27-19.3.96-1.17c.36-.43.87-.7,1.43-.75l2.02-.19c1.16-.11,2.19.73,2.3,1.89h0l1.82,97.62h0s.9,9.41.9,9.41l1.07,11.16h0s1.67,17.38,1.67,17.38c.06.6-.14,1.2-.56,1.64-.41.44-.98.69-1.58.68l-1.31-.03c-.5-.01-.99-.2-1.36-.54l-.73-.66-.34-.31-14.01-21.65c-.4-.35-.65-.84-.7-1.37Z"/>
  <path class="cls-6" d="M388.54,114.78l6.27,136.14.34.31.73.66c.38.34.86.53,1.36.54l1.32.03c1.17.02,2.13-.91,2.15-2.08,0-.08,0-.16,0-.23l-5.46-135.57c-.11-1.16-1.14-2.01-2.3-1.9l-2.02.19c-.55.05-1.07.32-1.42.75l-.96,1.17Z"/>
  <polygon class="cls-3" points="389.07 120.28 380.59 141.21 381.64 203.84 390.82 217.12 389.07 120.28"/>
  <path class="cls-2" d="M326.68,243.03c-.97.28-1.53,1.28-1.25,2.25l3.74,15.57,3.5-1-3.74-15.57c-.28-.97-1.28-1.53-2.25-1.25Z"/>
  <path class="cls-2" d="M333.68,241.04c-.97.28-1.53,1.28-1.25,2.25l.8,2.8,3.5-1-.8-2.8c-.28-.97-1.28-1.53-2.25-1.25Z"/>
  <path class="cls-2" d="M340.68,239.04c-.97.28-1.53,1.28-1.25,2.25l.8,2.8,3.5-1-.8-2.8c-.28-.97-1.28-1.53-2.25-1.25Z"/>
  <path class="cls-2" d="M347.68,237.05c-.97.28-1.53,1.28-1.25,2.25l.8,2.8,3.5-1-.8-2.8c-.28-.97-1.28-1.53-2.25-1.25Z"/>
  <path class="cls-2" d="M354.69,235.05c-.97.28-1.53,1.28-1.25,2.25l.8,2.8,3.5-1-.8-2.8c-.28-.97-1.28-1.53-2.25-1.25Z"/>
  <path class="cls-2" d="M361.69,233.06c-.97.28-1.53,1.28-1.25,2.25l.8,2.8,3.5-1-.8-2.8c-.28-.97-1.28-1.53-2.25-1.25Z"/>
  <path class="cls-2" d="M368.69,231.07c-.97.28-1.53,1.28-1.25,2.25l.8,2.8,3.5-1-.8-2.8c-.28-.97-1.28-1.53-2.25-1.25Z"/>
  <path class="cls-2" d="M375.69,229.07c-.97.28-1.53,1.28-1.25,2.25l.8,2.8,3.5-1-.8-2.8c-.28-.97-1.28-1.53-2.25-1.25Z"/>
  <path class="cls-2" d="M335.15,247.42c-.97.28-1.53,1.28-1.25,2.25l.8,2.8,3.5-1-.8-2.8c-.28-.97-1.28-1.53-2.25-1.25Z"/>
  <path class="cls-2" d="M342.15,245.43c-.97.28-1.53,1.28-1.25,2.25l.8,2.8,3.5-1-.8-2.8c-.28-.97-1.28-1.53-2.25-1.25Z"/>
  <path class="cls-2" d="M349.15,243.43c-.97.28-1.53,1.28-1.25,2.25l.8,2.8,3.5-1-.8-2.8c-.28-.97-1.28-1.53-2.25-1.25Z"/>
  <path class="cls-2" d="M356.15,241.44c-.97.28-1.53,1.28-1.25,2.25l.8,2.8,3.5-1-.8-2.8c-.28-.97-1.28-1.53-2.25-1.25Z"/>
  <path class="cls-2" d="M363.16,239.45c-.97.28-1.53,1.28-1.25,2.25l.8,2.8,3.5-1-.8-2.8c-.28-.97-1.28-1.53-2.25-1.25Z"/>
  <path class="cls-2" d="M370.16,237.45c-.97.28-1.53,1.28-1.25,2.25l.8,2.8,3.5-1-.8-2.8c-.28-.97-1.28-1.53-2.25-1.25Z"/>
  <path class="cls-2" d="M377.16,235.46c-.97.28-1.53,1.28-1.25,2.25l.8,2.8,3.5-1-.8-2.8c-.28-.97-1.28-1.53-2.25-1.25Z"/>
  <path class="cls-2" d="M336.62,253.81c-.97.28-1.53,1.28-1.25,2.25l.8,2.8,3.5-1-.8-2.8c-.28-.97-1.28-1.53-2.25-1.25Z"/>
  <path class="cls-2" d="M343.62,251.81c-.97.28-1.53,1.28-1.25,2.25l.8,2.8,3.5-1-.8-2.8c-.28-.97-1.28-1.53-2.25-1.25Z"/>
  <path class="cls-2" d="M350.62,249.82c-.97.28-1.53,1.28-1.25,2.25l.8,2.8,3.5-1-.8-2.8c-.28-.97-1.28-1.53-2.25-1.25Z"/>
  <path class="cls-2" d="M357.62,247.82c-.97.28-1.53,1.28-1.25,2.25l.8,2.8,3.5-1-.8-2.8c-.28-.97-1.28-1.53-2.25-1.25Z"/>
  <path class="cls-2" d="M364.63,245.83c-.97.28-1.53,1.28-1.25,2.25l.8,2.8,3.5-1-.8-2.8c-.28-.97-1.28-1.53-2.25-1.25Z"/>
  <path class="cls-2" d="M371.63,243.84c-.97.28-1.53,1.28-1.25,2.25l.8,2.8,3.5-1-.8-2.8c-.28-.97-1.28-1.53-2.25-1.25Z"/>
  <path class="cls-2" d="M378.63,241.84c-.97.28-1.53,1.28-1.25,2.25l.8,2.8,3.5-1-.8-2.8c-.28-.97-1.28-1.53-2.25-1.25Z"/>
  <path class="cls-5" d="M358.06,229.76c-3.55-5.32-10.74-6.76-16.06-3.22-.57.38-1.1.81-1.59,1.28l-24.24-10.63-10.05,13.16,34.45,14.53c4.75,4.34,12.11,4.01,16.45-.74,3.63-3.97,4.06-9.92,1.05-14.38h0Z"/>
  <path class="cls-2" d="M295.61,237.16c-12-1.68-27.25-11-44.61-27.33-1.96-1.81-3.07-4.36-3.07-7.03-.16-9.21,10.34-20.15,11.36-21.19l12.8-24.06c.16-.4,4.68-10.95,12.7-13.81,3.41-1.19,7.17-.82,10.29,1,13.5,7.18-3.23,45.64-5.49,50.67l17.61,11.52,10.9,9.31,16.16,4.02-7.34,19.98-24.98-2.94c-2.11.21-4.24.16-6.33-.15Z"/>
  <ellipse class="cls-5" cx="289.37" cy="51.56" rx="30.78" ry="30.11" transform="translate(203.76 332.74) rotate(-83.17)"/>
  <path class="cls-2" d="M210.96,28.72c5.79-5.32,9.15-12.89,14.02-19.13,4.87-6.24,12.66-11.42,19.94-8.96,5.02,1.7,8.45,6.72,9.86,12.02,1.41,5.31,1.12,10.94.81,16.45,1.22-11.26,9.94-21.27,20.57-23.64,10.63-2.37,22.37,3.1,27.7,12.9,6.44-4.67,15.35-3.8,20.75,2.05,5.12,5.81,5.22,15.72.22,21.76s-14.43,7.38-20.7,2.95l-2.63,1.9c.77,4.83-2.47,10.03-7.03,11.26-3.7,1-8.65.17-10.41,3.71-1.23,2.48.16,5.44,1.76,7.65,1.6,2.21,3.53,4.52,3.42,7.3-.16,4.19-4.8,6.58-8.8,6.99-9.65.98-19.56-4.62-23.98-13.56-.09-.17-.18-.35-.28-.52-5.2-8.59-6.64-18.94-3.97-28.62.53-1.88.4-3.34-.87-3.96-5.48-2.65-21.97-.45-27.26,2.7-5.29,3.14-9.76,7.6-14.9,11.01-5.14,3.4-11.45,5.75-17.25,3.96-4.64-1.43-8.26-5.36-10.48-9.84-2.22-4.48-3.2-9.51-4.02-14.49,9.76,7.32,24.43,6.5,33.54-1.87Z"/>
  <path class="cls-2" d="M0,318.21l.02-.02-.02.04v-.02Z"/>
</svg>