<?xml version="1.0" encoding="UTF-8"?>
<svg id="Capa_1" data-name="Capa 1" xmlns="http://www.w3.org/2000/svg" viewBox="0 0 493.32 480.85">
  <defs>
    <style>
      .cls-1 {
        fill: #a0616a;
      }

      .cls-1, .cls-2, .cls-3, .cls-4, .cls-5, .cls-6 {
        stroke-width: 0px;
      }

      .cls-2 {
        fill: #000;
      }

      .cls-3 {
        fill: #f2f2f2;
      }

      .cls-4 {
        fill: #2f2e41;
      }

      .cls-5 {
        fill: #bb8fc6;
      }

      .cls-6 {
        fill: #fff;
      }
    </style>
  </defs>
  <path class="cls-3" d="M314.74,107.79h-26.26v223.85c0,14.77-11.97,26.74-26.74,26.74H61v.26c0,14.77,11.97,26.74,26.74,26.74h226.99c14.77,0,26.74-11.97,26.74-26.74h0v-224.1c0-14.77-11.97-26.74-26.74-26.74Z"/>
  <path class="cls-1" d="M240.72,77.34c2.51,3.8,7.62,4.85,11.42,2.34.37-.24.72-.52,1.04-.81l37.47,16.9,7.22-9.21-44.64-19.75c-3.32-3.11-8.53-2.94-11.64.38-2.6,2.78-2.96,6.98-.87,10.15h0Z"/>
  <path class="cls-5" d="M401.51,87.88l3.72,21.06c.69,3.89-1.91,7.6-5.8,8.29-.23.04-.45.07-.68.09l-63.14,4.97-74.22-33.22,8.86-16.83,64.43,20.4,66.83-4.76Z"/>
  <rect class="cls-3" y="72.79" width="280.48" height="277.59" rx="26.74" ry="26.74"/>
  <path class="cls-6" d="M26.74,78.29c-11.73,0-21.24,9.51-21.24,21.24h0v224.1c0,11.73,9.51,21.24,21.24,21.24h144.87c57.09,0,103.36-46.28,103.36-103.36h0V99.53c0-11.73-9.51-21.24-21.24-21.24H26.74Z"/>
  <path class="cls-3" d="M203.7,146.3h-127.41c-2.43,0-4.41-1.97-4.41-4.41s1.97-4.41,4.41-4.41h127.41c2.43,0,4.41,1.97,4.41,4.41s-1.97,4.41-4.41,4.41h0Z"/>
  <path class="cls-3" d="M203.7,240.3h-127.41c-2.43,0-4.41-1.97-4.41-4.41s1.97-4.41,4.41-4.41h127.41c2.43,0,4.41,1.97,4.41,4.41s-1.97,4.41-4.41,4.41h0Z"/>
  <path class="cls-3" d="M255.43,193.33H24.55c-2.43,0-4.41-1.97-4.41-4.41s1.97-4.41,4.41-4.41h230.88c2.43,0,4.41,1.97,4.41,4.41s-1.97,4.41-4.41,4.41Z"/>
  <polygon class="cls-1" points="393.53 180.69 370.53 229.69 459.01 220.73 440.54 173.69 393.53 180.69"/>
  <polygon class="cls-1" points="414.1 462.32 405.71 462.25 402 429.14 414.38 429.24 414.1 462.32"/>
  <path class="cls-4" d="M387.23,475.66c-.02,2.07,1.65,3.76,3.72,3.78l16.68.14,2.92-5.92,1.07,5.95,6.29.06-1.59-21.22-2.19-.15-8.93-.62-2.88-.19-.05,6-13.4,9.09c-1.02.69-1.63,1.84-1.64,3.07Z"/>
  <polygon class="cls-1" points="321.27 462.36 313.27 459.83 319.45 427.08 331.25 430.82 321.27 462.36"/>
  <path class="cls-4" d="M291.66,467.21c-.62,1.97.47,4.08,2.44,4.71l15.9,5.03,4.53-4.8-.72,6,6,1.9,4.71-20.75-2.05-.78-8.36-3.21-2.7-1.03-1.81,5.72-15.48,4.75c-1.18.36-2.1,1.28-2.47,2.45Z"/>
  <path class="cls-4" d="M454.98,206.95l-80.45,14.74s-12.9,9.65-9.45,13.11,3.99,2.92,1.72,5.19-7.17,5.3-7.22,7.28-36.05,90.98-36.05,90.98c0,0,4-2,1,1s-3,5.48-3,5.48l-14,94.52,22.74,1.34,22.26-86.17,49.66-80.5s4.93,71.79,5.13,76.56,3.21-1.23.21,4.77-5,2-3,6-7.2,85.43-7.2,85.43h20.75l44.51-168.79s15.84-48.26-7.61-70.95Z"/>
  <path class="cls-5" d="M431.28,71.93l-32.22-3.35-8.35,10.84-9.73,5.18c-8.41,4.48-13.42,13.46-12.81,22.96l11.37,66.12s-9.6,21.62-3,27-5.1,18.71,9,12,75,1,75,1l-13-37,9.71-36.36,1.07-30.49c.41-11.71-7.12-22.24-18.34-25.63l-1.36-.41-7.33-11.87Z"/>
  <path class="cls-4" d="M475.64,47.23c.21,9.08-3.18,17.88-8.06,25.6-1.45-4.51-4.05-8.61-6.77-12.53,1.37,8.46-.09,17.14-4.15,24.7-.14.1-.29.2-.44.28-3.97,2.39-9.01,3.36-13.31,1.63,8.88-9.58,10.01-25.44,2.57-36.19-2.11-3.05-4.84-5.74-6.14-9.21-2.06-5.53-.08-11.63,1.17-17.4,1.17-5.37,1.37-11.76-2.23-15.7.78-1.12,2.11-1.73,3.47-1.6,2.22.31,3.84,2.24,4.87,4.23,1.03,1.99,1.71,4.19,3.14,5.91,2.66,3.21,7.18,3.98,11,5.67,9.24,4.11,14.67,14.48,14.89,24.59Z"/>
  <path class="cls-2" d="M237.65,479.66c0,.66.53,1.19,1.18,1.19h253.3c.66,0,1.19-.53,1.19-1.19s-.53-1.19-1.19-1.19h-253.29c-.66,0-1.19.53-1.19,1.18h0Z"/>
  <path class="cls-4" d="M397.89,42.04c.53-1.85-3.11,9.45-1.35,9.65,8,.92,18.97,5.69,24.54,7.92.25-.03.5-.06.75-.09.6-.07,1.18-.16,1.76-.27,12.97-2.45,17.96-22.38,17.96-22.56,0-.9-2.15-25.49-5.54-25.86-.89-.1-1.78-.15-2.68-.15h-8.4c-1.74-.37-3.5-.63-5.27-.76h-.01c-16.92-1.29-30.25,9.02-29.01,21.57,0,.01.02.03.03.04.36.54.68,1.05.96,1.54.27.46.5.9.7,1.31,1.54,3.2-2.42,7.23.21,7.99,3.5,1-9.19,33.89,4.64,33.89-6.73,1.91-.73-29.12.73-34.22Z"/>
  <circle class="cls-1" cx="412.99" cy="41.44" r="19.89"/>
  <path class="cls-4" d="M390.62,32.57c.33.17.66.33.99.5.35.17.69.33,1.04.49,6.66,3.02,12.08,3.36,15.37-.98.09-2.28.6-4.53,1.51-6.63-.16,2.34.46,4.67,1.76,6.63h6.62c6.82,4.53,10.33,5,5.59,19.87-1.32,4.14-6.57,28.25-4.51,31.83.6-.07,6.95-26.47,7.53-26.58,12.97-2.45,21.21-23.82,20.15-25.03,0-3.44-.79-6.83-2.31-9.91-1.93-3.9-4.93-7.17-8.66-9.42-2.22-1.08-4.54-1.95-6.92-2.6-.06-.01-.11-.03-.17-.04-.73-.2-1.48-.38-2.22-.53-1.54-.33-3.1-.56-4.66-.71-.11,0-.22-.01-.32-.01-.63,0-1.24.17-1.78.49,0,0,0,0-.01,0-.38.22-.72.52-.99.88-.47.6-.73,1.34-.72,2.1h-7.38c-.27,0-.55,0-.82.02-10.2.35-18.46,8.41-19.07,18.6-.02.35-.03.69-.03,1.04Z"/>
  <circle class="cls-4" cx="434.12" cy="13.11" r="13.11"/>
  <path class="cls-1" d="M477.74,252.46c2.44-3.85,1.3-8.94-2.55-11.38-.37-.24-.76-.44-1.17-.62l.06-41.1-11.36-2.81.28,48.82c-1.48,4.3.82,8.99,5.12,10.46,3.6,1.23,7.58-.16,9.62-3.37h0Z"/>
  <path class="cls-5" d="M421.46,101.48l17.68-12.02c3.27-2.22,7.72-1.37,9.94,1.9.13.19.25.39.36.59l30.4,55.56.12,81.31-18.98-1.19-7.79-67.13-31.73-59.01Z"/>
  <path class="cls-6" d="M285.65,285.88H96.65c-8.56,0-15.5,6.94-15.5,15.5s6.94,15.5,15.5,15.5h189c8.56,0,15.5-6.94,15.5-15.5s-6.94-15.5-15.5-15.5h0Z"/>
  <path class="cls-5" d="M285.65,317.88H96.65c-9.11,0-16.5-7.39-16.5-16.5s7.39-16.5,16.5-16.5h189c9.11,0,16.5,7.39,16.5,16.5s-7.39,16.5-16.5,16.5ZM96.65,286.88c-8.01,0-14.5,6.49-14.5,14.5s6.49,14.5,14.5,14.5h189c8.01,0,14.5-6.49,14.5-14.5s-6.49-14.5-14.5-14.5H96.65Z"/>
  <path class="cls-5" d="M296.79,353.52h-83.41c-2.43,0-4.41-1.97-4.41-4.41s1.97-4.41,4.41-4.41h83.41c2.43,0,4.41,1.97,4.41,4.41s-1.97,4.41-4.41,4.41Z"/>
</svg>